<?xml version="1.0" encoding="UTF-8"?>
<svg width="800" height="800" version="1.1" viewBox="0 0 800 800" xmlns="http://www.w3.org/2000/svg"><g transform="translate(46.2233 7.5982)"><ellipse cx="374.639" cy="330.915" rx="217.344" ry="207.241" fill="#fff" stroke="#fff" stroke-width="1.1109"/><g stroke-width="1.0865"><path d="m154.788 772.836c-25.4654-7.15147-47.5152-18.1494-47.5199-25.7982-1.49827-93.2854-1.61232-134.553-0.80733-224.278l-3.67072-2.76561c-8.7301-6.57746-16.8113-15.9342-18.6687-21.6153-1.01357-3.10017-1.84285-6.3253-1.84285-7.16697 0-3.56301-3.73061-8.11052-7.40484-10.0544-35.6982-22.2552-18.009-56.6325-6.71907-86.8789 3.37369-8.78906 2.61804-21.5651 1.19882-31.8449-0.716973-5.19322-2.26509-15.5538-3.44027-23.0235-1.77759-11.2988-2.13404-19.0382-2.12094-46.0512 0.0087-17.8584 0.892422-32.9782 1.0992-39.1142 1.5653-23.568 6.704-45.3598 15.7108-66.402 9.48807-22.5209 24.2147-44.2639 40.2167-62.4023 16.301-18.4202 34.3476-35.2625 51.9422-48.725 14.0967-10.83 38.7792-26.8721 51.6108-33.9211 17.7883-9.77193 41.9966-18.3958 54.7682-22.6022 13.9734-4.30358 54.52-12.5676 82.37-12.5052 34.9467 0.086448 69.5638 4.0999 91.0434 10.5554 46.6002 14.7925 81.8306 36.1794 116.947 70.7199 25.6219 25.6219 35.541 40.9976 47.338 64.6555 6.52954 12.5369 15.3767 31.6319 20.6436 47.7249 4.23523 15.8061 11.4654 39.242 14.0968 61.5496 4.60839 39.0664 1.98319 58.5231-4.85519 104.669-5.0864 30.5382-9.32699 45.5775-14.5854 62.6345-0.67032 2.34181-2.18262 8.41021-2.29053 11.8403 2e-3 3.45583 1.03018 8.13956 2.90497 11.7822 0.98431 1.91246 4.2791 7.14414 7.32175 11.626 7.29619 10.7473 6.09965 12.692 6.09965 16.4757 0 6.873-6.32535 13.6716-26.029 27.9762-6.10161 4.4297-10.3898 7.7529-12.9016 10.865-6.3801 7.90503-22.0507 29.6877-27.1872 34.7206-9.5731 9.37997-19.8277 15.2032-33.2974 18.9086-9.63443 3.184-20.2743 4.97666-29.3356 8.2748-14.2494 5.11615-48.818 22.1233-54.7504 24.6032-10.7802 4.25396-19.3577 7.11183-30.5402 7.31129-10.2473 0-24.1554-3.02622-32.91-6.25429-8.53258-3.25572-31.0052-9.10661-38.5835-9.10161-8.31565 5e-3 -13.2918 1.84156-25.7781 8.02625-14.5453 7.20451-21.6279 5.22888-30.5739 5.02234-3.45303-0.0797-9.75773-1.23649-14.1587-1.23649-4.87304-0.0311-7.62003 2.30771-10.174 8.14878-0.97055 2.20382-1.53618 18.0373-2.94985 82.5743-0.90731 41.4203 0.24556 37.2402-13.8016 50.0424-21.4059 16.826-30.668 20.7994-43.174 22.6367-17.484 2.5686-41.4362 5.08247-65.2413-1.60274zm63.8468-14.6306c10.4958-2.11989 23.3594-8.85667 33.6816-17.6395l8.69203-7.39571 0.69696-6.47001c0.38332-3.55852 0.75181-27.7383 0.81884-53.733 0.067-25.9946 0.44071-54.2318 0.83035-62.7493l0.70846-15.4864 4.44847-1.20502c3.01341-0.81629 7.77823-0.90272 14.7703-0.26795 5.67698 0.51539 16.4334 0.93707 23.9031 0.93707h13.5813l11.9516-5.36357c9.34767-4.195 13.4902-5.45955 19.0138-5.80415 9.73525-0.60733 28.7433 3.13485 46.7197 9.19791 16.6483 5.61511 24.2658 6.60499 36.7644 4.77747 13.6924-2.00209 27.415-6.85722 47.929-16.9574 15.3014-7.53376 23.3173-10.6709 41.5419-16.2578 12.4201-3.80752 25.1212-8.30198 28.2245-9.98766 8.14266-4.42293 21.4444-17.4052 32.6093-31.826 6.8902-8.89953 13.2209-15.523 21.8662-22.8774 19.8312-16.87 23.2548-24.7682 15.7901-36.4272-5.00464-7.81663-7.63428-15.414-7.68903-22.2144-0.0288-3.5779 1.73314-12.9514 4.39094-23.3598 4.88071-19.1136 8.3256-38.5485 12.5227-64.2567 3.37567-20.6767 4.97804-55.4182 3.0003-74.3067-4.02228-38.4151-13.944-73.2336-30.4865-106.986-40.1302-81.8808-111.152-131.48-203.786-142.316-28.0418-3.28022-70.5171-1.5758-95.5897 3.83577-40.2938 8.69685-91.6679 34.7977-129.296 65.6896-12.5424 10.297-31.4277 29.1564-40.2503 40.1951-25.7336 32.1977-43.4069 72.0884-49.8422 112.5-2.59327 16.2848-2.39442 66.5503 0.372402 94.1391 1.2098 12.0633 2.50456 25.0198 2.87725 28.7924 0.89774 9.08742-1.19341 18.5726-7.9835 36.2121-5.43534 14.1201-7.09908 20.4931-8.46947 32.4425l-0.732107 6.38378 7.62082 7.19753c4.19145 3.95863 10.0806 8.6643 13.087 10.457 4.35849 2.59899 5.72894 4.13469 6.76279 7.57827 2.96473 9.875 8.0541 18.5836 14.8376 25.3891l6.86895 6.89127v229.15l2.75494 2.75494c3.19989 3.19989 16.6852 9.63424 30.1584 14.3897 9.2094 3.25053 22.5352 6.15733 32.2769 7.04073 7.50603 0.68065 23.5941-0.35495 32.0519-2.06321zm-42.205-6.57176c-11.3312-2.04724-22.7645-5.94914-36.2804-12.3816l-11.1221-5.2932-0.5724-231.417-6.84657-6.19563c-7.00041-6.33483-10.4902-12.0054-15.3396-24.9259-2.24338-5.97703-3.06828-6.91896-9.92192-11.3294-4.11132-2.6457-9.53711-6.91137-12.0573-9.47928l-4.58219-4.66892 1.27954-8.23034c0.70375-4.52671 3.30014-13.4621 5.76975-19.8563 10.9751-28.4165 11.1583-30.4042 6.8583-74.379-2.49394-25.5045-2.71553-31.3796-2.09986-55.676 0.378567-14.9394 1.39929-31.5629 2.26827-36.9411 7.58683-46.9554 30.773-91.4955 66.1802-127.13 24.439-24.5962 52.03-43.8457 88.8535-61.9907 21.509-10.5987 32.1869-14.6543 51.3055-19.4864 24.3589-6.15661 36.9962-7.59832 65.7335-7.49916 36.6918 0.126606 61.3855 3.88195 91.8208 13.9638 72.4014 23.9833 127.634 81.0758 154.884 160.1 15.4583 44.8282 20.3438 89.8937 14.4518 133.309-2.76515 20.375-8.76471 51.2515-14.0393 72.2525-4.42677 17.6254-4.98926 21.1495-4.56834 28.6217 0.43396 7.70366 1.0337 9.59484 6.24984 19.7076l5.76981 11.1862-2.26804 3.65224c-2.66464 4.29087-7.46183 8.99088-18.8552 18.4732-5.0748 4.2236-13.3951 13.2438-21.4059 23.2067-20.4748 25.4641-24.3189 28.0594-55.5832 37.527-18.1076 5.48338-25.931 8.53194-41.8304 16.3001-20.7203 10.1236-28.611 13.1537-41.1367 15.7972-13.694 2.89004-20.3131 2.30187-37.2264-3.30792-8.29198-2.75028-21.9213-6.26493-30.2874-7.81032-19.0156-3.51257-25.4264-3.10666-37.8562 2.39692-19.6349 8.69376-18.8439 8.54553-37.1126 6.95541-8.96366-0.78021-19.5769-1.3374-23.585-1.23823-7.55189 0.18689-15.5144 2.61112-16.4322 5.00289-0.29012 0.75604-0.88789 32.2656-1.32838 70.0213l-0.80091 68.6467-3.88318 3.40948c-5.37792 4.72187-17.0024 12.0024-23.5066 14.7223-13.2113 5.52476-33.555 7.11717-50.897 3.98396zm7.98008-32.49c0.74391-0.89636 2.2859-1.62975 3.42665-1.62975 1.14074 0 2.35549 0.73339 2.69946 1.62975 0.82202 2.14213 2.4619 2.06069 5.01409-0.24901 1.96763-1.78069 2.1309-1.78069 3.12742 0 1.32415 2.36611 4.83992 2.44438 5.72897 0.12753 0.46854-1.22098 1.62325-1.61162 3.81357-1.29016l3.14155 0.46109 0.66778-11.4763c1.3808-23.7301 2.93499-115.299 2.20934-130.169l-0.75516-15.475-3.48524-2.154c-6.03107-3.7274-6.55878-6.61722-2.78043-15.2258 3.8965-8.87781 4.13455-14.4434 0.93584-21.879-1.73755-4.03904-3.35833-5.94493-6.35621-7.47434-3.90706-1.99324-4.04425-2.26771-4.72231-9.44775-0.38408-4.06719-0.7018-14.414-0.70605-22.9928-8e-3 -15.3479 0.0358-15.6322 2.70853-17.7346 3.50666-2.75834 3.79568-9.59151 0.54325-12.8439-2.03572-2.03573-2.173-3.62167-2.173-25.1044 0-22.875 7e-3 -22.9393 2.71626-26.1595 1.50516-1.78879 2.71626-4.60707 2.71626-6.32088s-1.2111-4.53209-2.71626-6.32088c-2.69893-3.2075-2.71626-3.36654-2.71626-24.9287v-21.7006l20.1003-9.71732 0.74407 7.15904c0.40925 3.93747 1.27445 17.4265 1.92267 29.9756 1.6597 32.1302 4.74939 51.8956 10.854 69.4347 1.22849 3.52961 2.23362 7.58274 2.23362 9.00694 0 4.28949-3.80406 10.3998-9.94731 15.978-12.4916 11.3426-15.0094 14.0984-16.2132 17.7459-2.16956 6.57379-0.69792 10.5275 7.02233 18.866 8.69721 9.39378 10.1163 13.0125 7.68122 19.588-2.86378 7.73313-2.8859 8.86527-0.27304 13.977 2.90104 5.6755 8.4455 9.77929 13.2488 9.80617 8.52762 0.0477 18.4863 3.2953 29.834 9.72898 6.35562 3.60337 13.2266 6.86506 15.2689 7.2482 2.04228 0.38313 12.5561-0.2197 23.364-1.33963 24.331-2.5212 83.6958-2.8744 104.941-0.62436 17.5622 1.85993 34.7311 4.96736 42.8154 7.74923 10.3646 3.56655 14.955 3.04765 22.7802-2.57507 3.66134-2.63085 10.0795-7.76305 14.2625-11.4049 4.18305-3.64183 10.2946-7.88681 13.5813-9.43329 10.9593-5.15666 14.5691-10.734 11.8371-18.2891-1.28323-3.54871-1.13176-4.13723 2.63598-10.2415 3.30306-5.35139 3.99674-7.48595 3.99338-12.2884-4e-3 -6.30114-1.33736-9.13713-8.6324-18.366-2.34321-2.96439-4.57182-6.371-4.95244-7.57026-0.44453-1.40058 1.23547-6.74104 4.69706-14.9312 10.1831-24.0932 16.6789-42.5777 19.836-56.4449 1.73933-7.6398 4.41254-19.0243 5.94047-25.2988 3.65684-15.0172 4.97298-38.8314 2.29414-41.5102-0.96576-0.96575-2.37581-1.96245-3.13345-2.21488-0.92816-0.30924-1.56635-3.8673-1.95634-10.9071-0.31833-5.74645-0.95173-10.821-1.40754-11.2768-0.4558-0.45581-1.74267-0.25799-2.85968 0.4396-1.55715 0.97245-2.2795 0.96286-3.09639-0.0411-1.93458-2.37771-5.67204-16.2217-8.41005-31.1519-5.57159-30.3815-10.1809-42.161-20.8072-53.1748-5.4099-5.60715-5.64009-6.08419-5.04192-10.4483 0.67336-4.91272-1.57165-17.7554-5.10166-29.1842-7.43586-24.0745-40.2865-44.5103-79.8177-49.6531-35.6012-4.63155-85.7326 14.049-127.664 47.5718-12.3189 9.8485-33.8805 30.8662-45.7454 44.5916-18.6209 21.5407-41.1887 58.3395-44.4834 72.534-1.5529 6.69043-1.55968 21.4941-0.0122 26.6122 0.66188 2.18905 1.14763 14.3232 1.14763 28.6678v24.8722l-2.71626 2.51734c-2.04542 1.89563-2.71626 3.61632-2.71626 6.96713 0 3.3508 0.67084 5.07149 2.71626 6.96712l2.71626 2.51734v22.9636c-2e-5 14.5847-0.39646 22.9636-1.08652 22.9636-2.61175 0-5.43252 4.47236-5.43252 8.61329 0 3.43707 0.62615 4.75819 3.21844 6.79065l3.21845 2.52338 0.0844 20.6436c0.0464 11.354 0.0649 21.5242 0.0411 22.6004-0.0272 1.22845-1.5599 2.56093-4.11773 3.57983-7.60611 3.02987-9.14049 4.15668-11.77 8.6435-3.44785 5.88334-3.41865 12.0342 0.0901 18.9582 4.40805 8.69889 3.5576 11.5721-5.30644 17.9273l-3.03082 2.17301-0.9488 36.9411c-1.27033 49.4596-1.2819 114.924-0.0209 118.24 0.92119 2.42293 1.6375 2.67797 7.76382 2.7642 3.71194 0.0523 7.00371 0.34973 7.31504 0.66105 0.96612 0.96613 2.05676 0.63116 3.46338-1.06371zm393.062-410.575c1.55379-1.50361 3.40963-5.92551 5.02372-11.97 1.40783-5.27203 3.2214-9.99449 4.03017-10.4943 2.28881-1.41457 5.32288 2.07561 5.32288 6.12306 0 4.9737-0.98409 6.99759-3.95094 8.12559-2.11266 0.80323-2.56808 1.75187-2.56808 5.34929 0 4.05661 0.21828 4.37291 3.01775 4.37291 4.22404 0 7.73649-2.78561 10.114-8.02112 5.43677-11.9722-0.49163-25.6605-11.1136-25.6605-8.01198 0-10.1446 2.54693-13.3812 15.9809-2.22937 9.2531-3.96475 11.3096-7.12792 8.44702-4.03432-3.65101-1.88531-15.7359 2.79825-15.7359 1.13422 0 1.56815-1.35296 1.56815-4.88927 0-4.36351-0.26609-4.88926-2.4745-4.88926-2.60564 0-6.95082 2.55399-9.15769 5.38266-2.60515 3.33918-3.91831 13.1162-2.57052 19.1388 2.46573 11.0181 13.3244 15.6546 20.4695 8.74018zm-411.533-7.01651c0-2.89492 0.31876-10.4733 0.70837-16.8408l0.70836-11.5773h-9.02225v9.68967c0 12.4931-0.27509 13.1269-5.69682 13.1269h-4.37782l0.53991-10.3218 0.53989-10.3218h-8.38923v6.38321c0 3.51076-0.30558 7.91111-0.67907 9.77854-0.58865 2.94328-1.13622 3.39532-4.11279 3.39532h-3.43373l0.43074-10.724 0.43073-10.724-3.65185-0.5555c-2.00851-0.30553-3.7929-0.43166-3.9653-0.28028-0.35333 0.31022-2.25993 31.3875-1.94826 31.756 0.20537 0.24282 29.0018 2.03393 37.3015 2.32012l4.61764 0.15923zm394.877-30.482c0.33221-0.53754 3.00975-1.55445 5.95007-2.25983 2.94033-0.70537 6.15847-2.1802 7.15141-3.2774 1.63492-1.80656 2.14991-1.85094 5.45479-0.47008 6.73415 2.81371 14.7378-1.16085 16.0723-7.98137 0.56904-2.90834-3.06736-24.8141-4.49649-27.0869-0.49442-0.78631-7.02262 0.14633-20.2861 2.89815l-19.5571 4.05757 0.2184 4.63838c0.12011 2.55111 0.42193 4.84192 0.67069 5.09069 0.39142 0.39141 4.42807-0.31268 13.366-2.33135 2.01809-0.45579 2.43951 0.16732 3.4006 5.02808 1.31961 6.67392-0.21005 8.89411-6.89701 10.0106-6.55113 1.09378-6.95926 1.63157-5.70418 7.51624 1.02226 4.79306 3.11324 6.6643 4.65653 4.1672zm18.6124-15.9444c-1.33405-1.33406-4.39881-12.3088-3.62799-12.9916 0.16179-0.14331 2.30119-0.59189 4.75422-0.99683l4.46004-0.73626 1.14026 5.76687c0.66772 3.37707 0.74729 6.50111 0.19199 7.53869-1.31804 2.4628-5.09924 3.23838-6.91852 1.41911zm-407.261-1.41591c1.99919-7.99419 3.43193-14.7378 3.18387-14.9859-0.24807-0.24806-2.16406-0.72901-4.25777-1.06877l-3.80674-0.61775-2.47301 10.2582-2.473 10.2582-15.5651-3.85535c-9.99205-2.47494-15.931-3.47866-16.5869-2.8033-0.562 0.57861-1.33709 2.77008-1.72241 4.86994l-0.7006 3.81791 17.7285 4.51726c9.75068 2.4845 18.9232 4.43339 20.3834 4.33087 2.47409-0.1737 2.90246-1.17633 6.2898-14.7212zm11.7954-32.8629c3.53238-7.84265 6.56696-14.632 6.74351-15.0876 0.28252-0.72892-5.41781-3.2482-7.34964-3.2482-0.40072 0-2.82102 4.6137-5.37842 10.2527l-4.64983 10.2527-3.69472-1.76189c-2.03211-0.96905-3.68995-2.2825-3.68412-2.91879 5e-3 -0.6363 1.27487-3.846 2.82008-7.13267 5.05601-10.7542 5.02692-10.3424 0.87043-12.3245l-3.72935-1.7784-4.28565 9.27626-4.28564 9.27626-6.47703-3.3494 4.27876-9.13064c2.35332-5.02185 4.27876-9.61043 4.27876-10.1968 0-1.14889-6.27939-4.10466-7.06057-3.32347-0.70893 0.70893-13.5309 28.4849-13.2676 28.7412 0.79437 0.77299 36.3089 16.6867 37.2655 16.6983 0.65066 8e-3 4.07315-6.40239 7.60553-14.245zm370.13 10.2066c2.61672-0.75239 2.49326-1.38205-2.45813-12.537-2.39773-5.40183-4.2312-9.93918-4.07439-10.083 0.15682-0.14381 2.05321-0.99398 4.21421-1.88927l3.92909-1.62779 3.57833 8.30426c1.96809 4.56734 3.93301 8.71255 4.36649 9.21159 0.67915 0.78188 7.55684-1.92357 7.55684-2.97261 0-0.20884-1.71124-4.13478-3.80276-8.72433-2.09152-4.58953-3.80276-8.54944-3.80276-8.79977 0-0.25034 1.4131-1.18591 3.14024-2.07903l3.14025-1.62389 2.21936 5.12711c1.22064 2.81993 3.24051 7.42152 4.48859 10.2258l2.26922 5.09864 3.50784-1.47493c1.9293-0.81122 3.50783-1.89226 3.50783-2.40232 0-1.74504-11.9061-28.5934-12.68-28.5934-1.09977 0-36.0431 15.2923-37.0372 16.2086-0.45344 0.41798 1.78263 6.59833 4.96904 13.7341 3.18643 7.13579 6.12841 13.8805 6.53775 14.9883 0.51707 1.39928 1.32189 1.77624 2.63649 1.23487 1.04072-0.42858 2.74784-1.02527 3.7936-1.32595zm-358.003-33.2347c1.34454-1.97503 2.44463-3.88153 2.44463-4.23667 0-0.35516-2.44463-2.40202-5.43252-4.54861-7.3623-5.28929-7.28562-7.72725 0.27163-8.63498 3.13728-0.37683 7.96852-0.6894 10.7361-0.69459 4.40383-9e-3 5.3628-0.45022 7.68252-3.54058 5.11473-6.81393 5.77608-6.4486-10.9701-6.05992-9.72342 0.22567-15.3359-0.0415-15.3483-0.73073-0.0457-2.53991-3.08443-22.4831-3.48699-22.8856-0.2427-0.2427-2.05592 1.84946-4.0294 4.64924l-3.58812 5.09051 1.71748 10.3285c0.94462 5.68067 1.59091 10.4551 1.43622 10.6098-0.1547 0.1547-3.02835-1.66753-6.38589-4.0494l-6.10462-4.33066-2.08465 3.0101c-1.14657 1.65555-2.41687 3.58682-2.82288 4.29168-0.46663 0.81011 5.3385 5.70653 15.7798 13.3097 9.0849 6.61545 16.7931 12.0248 17.1293 12.0207 0.3362-4e-3 1.71136-1.62336 3.05591-3.59837zm355.015-12.525c8.36608-6.25536 15.3918-11.518 15.6127-11.6948 0.58376-0.46714-7.50249-11.2886-8.43532-11.2886-0.43248 0-6.37269 2.4114-13.2004 5.35866-6.82778 2.94727-12.5942 5.17858-12.8143 4.95848-0.2201-0.22011 2.953-4.46499 7.05135-9.43306s8.12358-9.89284 8.94498-10.9439c1.30413-1.66881 1.11466-2.45763-1.49468-6.22292-5.36197-7.73731-4.37476-7.97714-22.2748 5.41109-8.96853 6.70797-16.3064 12.407-16.3064 12.6645 0 1.05868 4.82619 6.89921 5.70099 6.89921 0.52048 0 4.95111-3.01308 9.84584-6.69574 4.89474-3.68267 9.61506-7.22739 10.4896-7.87716 0.87455-0.64977-2.4257 3.61899-7.3339 9.48613-4.90818 5.86713-8.91082 11.0009-8.89475 11.4083 0.0161 0.40742 1.36063 2.31439 2.98788 4.23772l2.95866 3.49697 12.2232-5.30872c6.72275-2.91979 12.2232-5.16415 12.2232-4.98748 0 0.17668-4.67698 3.83668-10.3933 8.13333-11.1352 8.36976-10.8006 7.63523-6.07918 13.3423 1.86352 2.25255 0.49523 3.03295 19.1887-10.9442zm-322.357-26.3157 3.59409-3.26858-22.956-24.3645 4.35279-3.95039c2.39404-2.17271 4.35279-4.40989 4.35279-4.9715s-1.20155-2.1499-2.6701-3.52953l-2.67009-2.50844-26.2337 24.5514 2.90515 3.03232 2.90514 3.03232 4.38533-3.75368c2.41193-2.06453 4.7456-3.75369 5.18594-3.75369 0.44033 0 5.56118 5.13374 11.3797 11.4083s10.8706 11.394 11.227 11.3764c0.35636-0.0175 2.26527-1.50273 4.24201-3.30045zm279.852 0.21019 2.99116-3.1221-16.4287-14.3283 10.3157-12.0859c5.67365-6.64728 10.3157-12.4389 10.3157-12.8703s-1.47555-2.19805-3.279-3.92588c-3.24753-3.11132-3.29873-3.1211-5.3327-1.01815-6.12539 6.33315-25.0661 29.2973-24.8066 30.076 0.21575 0.64725 22.5479 20.3017 23.1648 20.3873 0.0376 5e-3 1.41438-1.39547 3.05952-3.11262zm-260.461-16.5387 3.68386-2.27676-2.38841-3.97064c-1.31364-2.18386-3.24457-5.21815-4.29095-6.74288l-1.90251-2.77224 4.91819-2.97069c5.5811-3.37111 7.80808-3.1112 10.3602 1.20912 0.9807 1.66019 2.75641 3.89937 3.94602 4.97595 2.09018 1.89159 2.31192 1.87234 6.5924-0.5725 4.48292-2.56045 5.69204-4.79607 2.94117-5.43815-0.82778-0.1932-3.17201-2.55146-5.20941-5.24056-2.0374-2.68909-4.66038-5.02949-5.82885-5.20086-1.7796-0.26101-2.1245-1.18303-2.1245-5.67946 0-4.41783-0.53318-5.90103-3.01258-8.38043-2.44273-2.44273-3.98411-3.01258-8.14878-3.01258-4.38976 0-6.59581 0.921431-15.1797 6.34031-5.52391 3.48717-10.3053 6.76396-10.6253 7.28177-0.69033 1.11697 20.2337 34.7078 21.627 34.7194 0.52705 4e-3 2.616-1.01659 4.64214-2.2688zm-11.6091-26.5689c-2.32014-3.75407-2.33099-3.91456-0.36434-5.38569 7.26972-5.43807 11.1355-5.9206 13.4084-1.67367 1.00137 1.87108 0.75968 2.65107-1.4498 4.67902-1.45831 1.3385-4.12554 3.29226-5.92716 4.34167l-3.27567 1.90804zm244.496 22.4231c0-1.26692 5.27349-35.5464 6.06074-39.3969 0.51932-2.54004-0.02-3.26198-4.31899-5.78136l-4.91242-2.87887-16.8972 14.2861c-9.29347 7.85736-16.6878 14.6148-16.432 15.0166 0.2559 0.40179 2.20607 1.65724 4.3337 2.7899l3.86841 2.05938 3.52149-2.71568 3.52149-2.7157 12.6598 6.74514-0.6392 4.48994c-0.59695 4.19308-0.4026 4.63609 2.93935 6.70063 3.90902 2.41484 6.29483 2.94573 6.29483 1.40072zm-10.7369-23.1498-3.6746-2.33138 4.56286-4.25619c2.50958-2.3409 4.73173-4.08549 4.93812-3.87686 0.20639 0.20862-0.19333 3.17303-0.88827 6.58756l-1.26352 6.20825zm-170.634 1.59481c8.03133-4.06873 10.7925-8.42394 10.7788-17.0015-0.0188-11.7654-7.0172-22.4486-15.7829-24.0931-8.19403-1.53721-19.1191 2.31758-23.564 8.31428-6.0634 8.18032-4.05789 22.6938 4.22076 30.545 6.44514 6.11232 15.122 6.90893 24.3474 2.23531zm-15.0296-7.33385c-3.55428-2.56312-6.7761-9.54012-6.7761-14.674 0-8.0016 7.61827-12.8097 14.84-9.36589 7.15537 3.41216 10.3935 16.2196 5.53026 21.8734-3.13073 3.6397-10.0272 4.73876-13.5942 2.16647zm160.978-2.98794c2.09673-6.72274 4.80668-15.4012 6.02214-19.2854 1.21545-3.88425 2.2162-7.40599 2.22392-7.82608 0.0124-0.675662-6.8734-3.0171-8.9193-3.0329-0.43148-0.0034-1.5857 2.80527-2.56492 6.24134-0.97921 3.43607-2.09817 6.59486-2.48655 7.01952-0.75743 0.82817-12.0219-2.08259-13.5581-3.50345-0.50796-0.469804-0.14127-3.54518 0.81488-6.83418 0.95613-3.289 1.73843-6.49628 1.73843-7.12729 0-1.13199-8.35031-4.1744-9.08472-3.30998-0.62023 0.730002-11.5867 37.2839-11.5722 38.573 0.0118 1.05756 8.61359 4.36391 9.12318 3.5068 0.11344-0.19081 1.41039-4.04292 2.88211-8.56024l2.67584-8.21331 14.4852 4.47508-2.61039 8.14878c-1.43572 4.48183-2.61695 8.46691-2.62494 8.85572-0.0119 0.57542 5.78745 2.52196 8.88873 2.98353 0.41498 0.0617 2.47001-5.38813 4.56673-12.1109zm-49.3462-2.17301c3.18839-1.62896 5.48435-3.82046 6.88123-6.56811 1.15299-2.26792 1.85305-4.36676 1.55571-4.66411s-2.3025-0.826538-4.45591-1.17599c-3.39669-0.551209-4.3357-0.18529-7.08956 2.76272-10.4865 11.2258-22.4633-7.52734-12.4258-19.4562 4.66341-5.54214 12.9643-3.86205 15.7551 3.18884 0.1892 0.477989 2.42193 1.14032 4.96164 1.47184 4.42503 0.577629 4.61747 0.482456 4.61358-2.28173-0.018-12.8386-21.8783-19.3051-32.4628-9.60278-9.14531 8.38306-8.83549 28.8064 0.53009 34.9429 6.74047 4.41652 15.1681 4.94289 22.1367 1.3826z" fill="#fff100"/><path d="m444.084 553.395c-26.3689-4.53974-44.7835-5.81466-84.7473-5.86738-21.214-0.028-46.9194 0.38409-57.1232 0.91573-17.6572 0.92001-18.9017 0.8504-25.7927-1.44278-3.98219-1.32518-7.50488-2.83745-7.82819-3.36058-1.25274-2.02697 17.8055-5.89891 39.6784-8.06117 9.26245-0.91565 22.4635-2.28016 29.3356-3.03225 15.6559-1.71337 54.8591-1.64278 72.7958 0.13109 23.2808 2.30239 68.4672 9.56501 70.1823 11.2801 1.25446 1.25447-4.41802 7.37594-8.8012 9.49779-5.48107 2.65334-12.0188 2.63904-27.6994-0.0606zm46.1764-20.2533c-29.2396-3.84043-84.7365-10.3402-95.4985-11.1848-30.1772-2.36824-68.5858-0.71415-106.048 4.56706-30.9052 4.35682-50.3072 4.81083-55.0546 1.28826-2.06079-1.52909-3.18866-3.45008-3.42327-5.83049-0.30346-3.07902 0.34044-4.14601 4.85279-8.04136 10.6876-9.22617 16.541-15.4951 17.303-18.5312 1.77269-7.06298-6.65088-14.7524-16.1609-14.7524-6.28468 0-8.36134 0.82249-8.36134 3.31163 0 2.79097 1.94603 3.75064 7.60553 3.75064 4.7031 0 4.90205 0.13202 5.22496 3.46708 0.41283 4.26377-2.85419 7.94122-7.05493 7.94122-4.0748 0-12.0716-4.08223-14.1196-7.20775-1.19897-1.82987-1.54372-4.10928-1.14993-7.60304 0.94297-8.36596 1.88653-8.76744 23.7006-10.0845 31.8113-1.92063 52.7028-6.45118 71.084-15.4153 11.9722-5.83861 21.3499-13.1803 33.0645-25.886 12.4284-13.4798 16.4759-15.6988 27.549-15.103 6.29055 0.33847 9.48305 1.21997 16.1845 4.46882 7.10739 3.44563 11.0359 6.63079 26.4309 21.4296 18.7313 18.0059 28.2238 25.5857 36.7838 29.3722 2.7476 1.2154 11.7274 3.62341 19.9551 5.35112 22.5132 4.7275 29.0162 7.42998 33.3988 13.8795 5.72351 8.4229 2.72731 17.6633-5.72731 17.6633-5.49605 0-6.73632-1.52399-6.73632-8.27722 0-3.11829-0.29677-6.44299-0.6595-7.38823-1.3687-3.56677-10.4869-0.98385-13.9424 3.94945-4.25637 6.07684-0.71176 11.0922 12.545 17.7501 9.22902 4.63509 9.66236 5.01367 9.66236 8.44131 0 2.51351-0.91294 4.46324-3.04734 6.50813-1.67603 1.60574-3.50951 2.84628-4.07439 2.75674-0.56488-0.0895-2.49384-0.35545-4.28657-0.59091zm-118.972-29.1724c45.4621-2.82432 43.6277-2.62659 43.236-4.66049-1.31545-6.8306-31.6237-8.05675-69.3121-2.80407-13.0697 1.82154-17.0714 3.68777-15.6804 7.31269 0.90807 2.36637 5.82287 2.38425 41.7565 0.15187zm-20.6436-51.0414c7.27971-2.36369 10.5735-4.40907 11.4261-7.09543 1.59337-5.02025-5.63893-9.97-11.1545-7.63409-3.33616 1.4129-10.0502 11.3246-10.0502 14.8368 0 2.84609 1.07282 3.98043 2.61629 2.76629 0.65256-0.51331 3.87557-1.80644 7.16225-2.8736zm52.7973 2.32242c0.54486-1.4199-4.54197-10.9315-8.05724-15.0658-1.85557-2.18235-6.74619-2.5195-8.66812-0.59757-0.71709 0.71709-1.3038 2.97478-1.3038 5.01709 0 2.86475 0.91863 4.72314 4.21819 7.93148 3.87932 3.77209 4.93831 4.21819 8.72614 4.21819 2.8363 0 4.72186-0.55747 5.08483-1.50335z" fill="#f19e30"/><path d="m186.583 760.269c-9.74174-0.8834-23.0675-3.7902-32.2769-7.04073-13.4732-4.75543-26.9585-11.1898-30.1584-14.3897l-2.75494-2.75494v-229.15l-6.86895-6.89127c-6.78347-6.80549-11.8728-15.5141-14.8376-25.3891-1.03385-3.44358-2.40431-4.97928-6.76279-7.57827-3.0064-1.79273-8.89556-6.4984-13.087-10.457l-7.62082-7.19753 0.732107-6.38378c1.37039-11.9494 3.03413-18.3224 8.46947-32.4425 6.79009-17.6395 8.88124-27.1247 7.9835-36.2121-0.372685-3.77254-1.66745-16.7291-2.87725-28.7924-2.76683-27.5888-2.96567-77.8542-0.372402-94.1391 6.4353-40.4115 24.1086-80.3022 49.8422-112.5 8.82257-11.0387 27.7079-29.8981 40.2503-40.1951 37.6284-30.8919 89.0026-56.9927 129.296-65.6896 25.0726-5.41157 67.5479-7.116 95.5897-3.83577 69.8915 8.17565 127.337 38.2942 169.896 89.0769 24.8165 29.6112 45.7866 72.1123 56.0205 113.54 7.79818 31.5672 9.85457 50.1827 9.04318 81.8633-0.76135 29.7266-6.10623 63.8134-16.2111 103.386-2.6578 10.4084-4.41974 19.7819-4.39094 23.3598 0.0548 6.80045 2.68439 14.3978 7.68903 22.2144 7.46471 11.659 4.04108 19.5572-15.7901 36.4272-8.64529 7.35442-14.976 13.9779-21.8662 22.8774-11.1649 14.4208-24.4667 27.403-32.6093 31.826-3.10337 1.68568-15.8044 6.18014-28.2245 9.98766-18.2246 5.58696-26.2405 8.72407-41.5419 16.2578-20.514 10.1002-34.2366 14.9554-47.929 16.9574-12.4986 1.82752-20.1161 0.83764-36.7644-4.77747-17.9764-6.06306-36.9844-9.80524-46.7197-9.19791-5.52362 0.3446-9.66615 1.60915-19.0138 5.80415l-11.9516 5.36357h-13.5813c-7.46972 0-18.2261-0.42168-23.9031-0.93707-6.99203-0.63477-11.7568-0.54834-14.7703 0.26795l-4.44847 1.20502-0.70846 15.4864c-0.38964 8.51749-0.7633 36.7547-0.83035 62.7493-0.067 25.9946-0.43552 50.1744-0.81884 53.733l-0.69696 6.47001-8.69203 7.39571c-10.3223 8.7828-23.1858 15.5196-33.6816 17.6395-8.45775 1.70826-24.5458 2.74386-32.0519 2.06321zm26.9368-8.62359c4.64088-0.75917 10.8192-2.74584 13.8071-3.99534 6.50421-2.71996 18.1287-10.0004 23.5066-14.7223l3.88318-3.40948 0.80091-68.6467c0.44049-37.7557 1.03826-69.2653 1.32838-70.0213 0.91781-2.39177 8.88029-4.816 16.4322-5.00289 4.0081-0.0992 14.6214 0.45802 23.585 1.23823 18.2686 1.59012 17.4777 1.73835 37.1126-6.95541 12.4298-5.50358 18.8406-5.90949 37.8562-2.39692 8.36608 1.54539 21.9954 5.06004 30.2874 7.81032 16.9133 5.60979 23.5324 6.19796 37.2264 3.30792 12.5257-2.64348 20.4164-5.67365 41.1367-15.7972 15.8994-7.76814 23.7228-10.8167 41.8304-16.3001 31.2643-9.46754 35.1084-12.0628 55.5832-37.527 8.0108-9.96284 16.3311-18.9831 21.4059-23.2067 11.3934-9.48234 16.1906-14.1824 18.8552-18.4732l2.26804-3.65224-5.76981-11.1862c-5.21614-10.1128-5.81588-12.0039-6.24984-19.7076-0.42092-7.47219 0.14157-10.9963 4.56834-28.6217 5.27458-21.001 11.2741-51.8775 14.0393-72.2525 5.89202-43.4155 1.00657-88.4811-14.4518-133.309-27.2504-79.0243-82.4829-136.117-154.884-160.1-30.4353-10.0818-55.1291-13.8372-91.8208-13.9638-28.7374-0.09916-41.3746 1.34255-65.7335 7.49916-19.1187 4.83216-29.7965 8.88772-51.3055 19.4864-36.8235 18.145-64.4145 37.3946-88.8535 61.9907-35.4072 35.635-58.5934 80.175-66.1802 127.13-0.868984 5.3782-1.8897 22.0017-2.26827 36.9411-0.615671 24.2963-0.394087 30.1714 2.09986 55.676 4.30004 43.9748 4.11676 45.9625-6.8583 74.379-2.46961 6.39428-5.066 15.3296-5.76975 19.8563l-1.27954 8.23034 4.58219 4.66892c2.52021 2.56791 7.946 6.83358 12.0573 9.47928 6.85364 4.41042 7.67854 5.35235 9.92192 11.3294 4.84946 12.9205 8.33921 18.5911 15.3396 24.9259l6.84657 6.19563 0.5724 231.417 11.1221 5.2932c26.7827 12.7464 50.0012 16.2158 73.3703 12.393zm-32.5732-31.4376c-0.31133-0.31132-3.6031-0.60879-7.31504-0.66105-6.12632-0.0863-6.84263-0.34127-7.76382-2.7642-1.261-3.31667-1.24943-68.7808 0.0209-118.24l0.9488-36.9411 3.03082-2.17301c8.86404-6.35524 9.71449-9.22843 5.30644-17.9273-3.50868-6.92404-3.53789-13.0749-0.0901-18.9582 2.62946-4.48682 4.16383-5.61363 11.7699-8.6435 2.55783-1.0189 4.09053-2.35138 4.11773-3.57983 0.0238-1.07626 5e-3 -11.2464-0.0411-22.6004l-0.0844-20.6436-3.21845-2.52338c-2.59218-2.03246-3.21833-3.35358-3.21833-6.79065 0-4.14093 2.82077-8.61329 5.43252-8.61329 0.69006 0 1.0865-8.37888 1.0865-22.9636v-22.9636l-2.71626-2.51735c-2.04542-1.89562-2.71626-3.61632-2.71626-6.96712s0.67084-5.0715 2.71626-6.96712l2.71626-2.51734v-24.8722c0-14.3446-0.48575-26.4787-1.14763-28.6678-1.54749-5.11807-1.54071-19.9218 0.0122-26.6122 3.29463-14.1945 25.8625-50.9933 44.4834-72.534 11.8649-13.7253 33.4265-34.7431 45.7454-44.5916 34.4302-27.5256 74.9592-45.3957 109.194-48.1457 17.7383-1.42489 41.8455 3.77097 60.8442 13.1139 20.1668 9.91729 32.9609 22.5983 37.4441 37.1131 3.53001 11.4288 5.77502 24.2715 5.10166 29.1842-0.59818 4.36415-0.36798 4.84119 5.04192 10.4484 10.6263 11.0138 15.2356 22.7933 20.8072 53.1748 2.73801 14.9302 6.47547 28.7742 8.41005 31.1519 0.81689 1.00399 1.53924 1.01358 3.09639 0.0411 1.11701-0.69759 2.40388-0.89541 2.85968-0.4396 0.45581 0.45581 1.08921 5.53038 1.40754 11.2768 0.38999 7.03975 1.02818 10.5978 1.95634 10.9071 0.75764 0.25242 2.16769 1.24913 3.13344 2.21488 2.67884 2.67884 1.36271 26.4931-2.29413 41.5102-1.52793 6.27456-4.20114 17.659-5.94047 25.2988-3.1571 13.8672-9.65297 32.3517-19.836 56.4449-3.46158 8.19014-5.14158 13.5306-4.69705 14.9312 0.38062 1.19926 2.60923 4.60588 4.95244 7.57026 7.29504 9.22891 8.628 12.0649 8.6324 18.366 3e-3 4.80244-0.69032 6.93699-3.99338 12.2884-3.76774 6.10423-3.91921 6.69274-2.63598 10.2415 2.73195 7.55507-0.87787 13.1325-11.8371 18.2891-3.28668 1.54647-9.39827 5.79145-13.5813 9.43329-4.18304 3.64183-10.6012 8.77403-14.2625 11.4049-7.8251 5.62271-12.4155 6.14161-22.7801 2.57507-8.08431-2.78188-25.2532-5.8893-42.8154-7.74923-21.2456-2.25005-80.6104-1.89684-104.941 0.62436-10.8079 1.11992-21.3218 1.72276-23.364 1.33962-2.0423-0.38313-8.91332-3.64483-15.2689-7.2482-11.3477-6.43368-21.3064-9.68124-29.834-9.72898-4.80326-0.0268-10.3477-4.13066-13.2488-9.80617-2.61286-5.11173-2.59074-6.24386 0.27304-13.977 2.43504-6.57545 1.01599-10.1942-7.68122-19.588-7.72025-8.33858-9.19189-12.2922-7.02233-18.866 1.20377-3.64747 3.72159-6.40332 16.2132-17.7459 6.14327-5.57812 9.94733-11.6885 9.94733-15.978 0-1.4242-1.00513-5.47733-2.23362-9.00694-6.10456-17.5391-9.19425-37.3045-10.854-69.4347-0.64822-12.5491-1.51342-26.0382-1.92267-29.9756l-0.74407-7.15904-10.0502 4.85867-10.0502 4.85865v21.7006c0 21.5622 0.0174 21.7212 2.71626 24.9287 1.50516 1.78879 2.71626 4.60707 2.71626 6.32088s-1.2111 4.53209-2.71626 6.32088c-2.70958 3.22015-2.71626 3.28449-2.71626 26.1595 0 21.4827 0.13728 23.0686 2.173 25.1044 3.25243 3.25243 2.96341 10.0856-0.54325 12.8439-2.67271 2.10235-2.71614 2.38667-2.70853 17.7346 4e-3 8.57886 0.32197 18.9256 0.70605 22.9928 0.67806 7.18004 0.81525 7.45451 4.72231 9.44775 2.99788 1.52941 4.61866 3.4353 6.35621 7.47434 3.19871 7.43562 2.96066 13.0012-0.93584 21.879-3.77835 8.60863-3.25064 11.4984 2.78043 15.2258l3.48524 2.154 0.75516 15.475c0.72565 14.8702-0.82854 106.439-2.20934 130.169l-0.66778 11.4763-3.14155-0.46109c-2.19032-0.32146-3.34503 0.0692-3.81357 1.29016-0.88905 2.31685-4.40482 2.23858-5.72897-0.12753-0.99652-1.78069-1.15979-1.78069-3.12742 0-2.55219 2.3097-4.19207 2.39114-5.01409 0.24901-0.34397-0.89636-1.55872-1.62975-2.69946-1.62975-1.14075 0-2.68274 0.73339-3.42665 1.62975-1.40662 1.69487-2.49727 2.02984-3.46339 1.06371zm290.837-166.752c4.38318-2.12185 10.0557-8.24332 8.8012-9.49779-1.71513-1.71512-46.9014-8.97774-70.1823-11.2801-17.9366-1.77387-57.1398-1.84446-72.7958-0.13109-6.87214 0.75209-20.0732 2.1166-29.3356 3.03225-21.8729 2.16226-40.9311 6.0342-39.6784 8.06117 0.32331 0.52313 3.846 2.0354 7.82819 3.36058 6.891 2.29318 8.13548 2.36279 25.7927 1.44278 10.2038-0.53164 35.9092-0.94373 57.1232-0.91573 39.9638 0.0527 58.3784 1.32764 84.7473 5.86738 15.6807 2.69962 22.2184 2.71392 27.6994 0.0606zm26.8379-22.4797c2.1344-2.04489 3.04734-3.99462 3.04734-6.50813 0-3.42764-0.43334-3.80622-9.66236-8.44131-13.2568-6.65795-16.8014-11.6733-12.545-17.7501 3.45542-4.9333 12.5737-7.51622 13.9424-3.94945 0.36273 0.94524 0.6595 4.26994 0.6595 7.38823 0 6.75323 1.24027 8.27722 6.73632 8.27722 8.45462 0 11.4508-9.24042 5.72731-17.6633-4.38257-6.44953-10.8856-9.15201-33.3988-13.8795-8.22768-1.72771-17.2075-4.13572-19.9551-5.35112-8.56001-3.7865-18.0525-11.3664-36.7838-29.3722-15.395-14.7988-19.3235-17.984-26.4309-21.4296-6.70147-3.24885-9.89397-4.13035-16.1845-4.46882-11.0731-0.5958-15.1206 1.6231-27.549 15.103-11.7146 12.7057-21.0922 20.0474-33.0645 25.886-18.3812 8.96416-39.2727 13.4947-71.084 15.4153-21.814 1.31704-22.7576 1.71852-23.7006 10.0845-0.39379 3.49376-0.049 5.77317 1.14993 7.60304 2.04793 3.12552 10.0448 7.20775 14.1196 7.20775 4.20074 0 7.46776-3.67745 7.05493-7.94122-0.32291-3.33506-0.52186-3.46708-5.22496-3.46708-5.6595 0-7.60553-0.95967-7.60553-3.75064 0-2.48914 2.07666-3.31163 8.36134-3.31163 9.50998 0 17.9336 7.68944 16.1609 14.7524-0.76202 3.03612-6.61547 9.30506-17.303 18.5312-4.51235 3.89535-5.15625 4.96234-4.85279 8.04136 0.23461 2.38041 1.36248 4.3014 3.42327 5.83049 4.74744 3.52257 24.1494 3.06856 55.0546-1.28826 37.4622-5.28121 75.8708-6.9353 106.048-4.56706 11.4683 0.90001 88.589 10.0011 99.7851 11.7757 0.56488 0.0895 2.39836-1.151 4.07439-2.75674zm-169.09-27.1585c-1.39102-3.62492 2.61066-5.49115 15.6804-7.31269 37.6884-5.25268 67.9966-4.02653 69.3121 2.80407 0.39169 2.0339 2.2261 1.83617-43.236 4.66049-35.9336 2.23238-40.8484 2.2145-41.7565-0.15187zm12.0493-47.7976c-3.17904-3.3721 4.15395-15.6272 9.33525-17.8215 5.51556-2.33591 12.7479 2.61384 11.1545 7.63409-0.85261 2.68636-4.1464 4.73174-11.4261 7.09543-3.28668 1.06716-6.50969 2.36029-7.16225 2.8736-0.65256 0.51333-1.51993 0.62303-1.90138 0.21841zm47.9517-3.37746c-6.66961-6.14673-5.71246-14.5276 1.27036-14.4826 3.82476 0.0247 4.75563 1.52857 9.70705 9.75652 4.27938 7.11118 4.51042 8.50924-2.25127 8.94422-3.83104 0.24645-6.05157-1.7533-8.72614-4.21819zm110.303 14.7046c15.3336-27.4956 26.1145-62.72 29.045-94.8984 1.03351-11.3482 0.95538-13.9688-0.57329-19.2272-1.06096-3.64953-1.11165-7.17809-1.0804-9.76356 0.0358-2.96942 0.15223-4.32867-1.92034-6.8489-2.99499-3.6419-8.10606-23.2932-11.705-45.004-3.6839-22.2232-6.2185-31.3772-11.6903-42.2205-5.79687-11.4876-11.4666-17.5372-16.4362-17.5372-7.12934 0-24.4831 17.2472-33.8978 33.6897-4.96634 6.2624-4.31215 7.83745-8.57012 3.80451l-2.82494-2.70646-8.64281 1.82725c-6.74861 1.42679-14.7149 1.83994-36.3487 1.88515-29.5696 0.0618-39.5005-1.06713-63.5605-7.22529l-9.77854-2.50282-7.06227-13.6261c-8.89835-17.1687-10.1936-19.1142-14.4552-21.7127-4.17569-2.54607-13.5949-2.85518-17.9222-0.58815-6.99165 3.66286-11.8042 10.9883-17.6694 26.8956-1.78486 4.84079-4.47575 10.2639-5.97975 12.0513-1.50401 1.7874-5.42127 7.81495-8.70503 13.3945-3.84405 6.53161-7.0205 10.646-8.91868 11.5522-2.5977 1.24013-2.98823 2.11292-3.28489 7.34123-0.40485 7.13496-2.27277 8.88552-4.75973 7.51855-1.17643-0.64663-2.43654-0.86714-2.78434-0.51934s-0.53128 6.37676-0.40773 13.3977-0.27242 24.1237-0.87993 38.0062c-1.72088 39.325 1.22964 64.9335 9.80261 85.0797 3.77235 8.86491 4.23825 13.9196 1.64746 17.8736-0.95612 1.45923-1.73629 2.79259-1.7337 2.96301 0.0127 0.83676 29.6578 0.67501 31.8909-0.174l2.57697-0.97976-2.563-9.58999c-1.40965-5.27448-3.89685-17.1684-5.52713-26.4308-2.72177-15.4638-2.96653-19.195-2.99339-45.6332-0.026-25.5876 0.24127-30.1255 2.40115-40.7696 4.47579-22.0572 11.1919-38.4937 20.2951-49.6688 5.53434-6.79399 6.11722-9.79953 2.62196-13.5201-1.29711-1.38071-2.03256-2.83619-1.63435-3.2344 2.10208-2.10207 17.1741 9.06701 24.2325 17.9574 11.3272 14.2673 16.7071 27.5782 26.5248 65.6283 8.71017 33.7576 16.5491 52.9565 22.5543 55.2397 3.48628 1.32548 8.15396 0.37376 14.0646-2.86773l4.61187-2.52923 1.56998 2.24146c1.96543 2.80605 8.42333 3.01956 13.4054 0.44321 4.61115-2.38452 10.0306-11.6728 27.6513-47.3908 26.2219-53.1533 38.2824-72.13 58.3206-91.7655 5.1803-5.07617 6.67553-5.86386 7.70922-4.83017 1.03367 1.03368 0.56241 1.98884-2.96917 5.60543-7.0393 7.20875-7.35898 9.09388-3.12444 18.4243 11.7182 25.82 16.3837 52.5397 15.443 86.4744-0.88153 31.7991-6.46308 55.9945-17.0241 72.4686-5.75828 8.98234-10.7612 18.6324-10.7798 20.793-5e-3 0.67974 3.04518 2.48161 6.78004 4.00416 9.35302 3.81286 9.3538 3.81305 15.6608 3.90947l5.61065 0.0858 3.78695-6.79065zm-116.096-124.832c-2.77779-2.56048-6.24703-7.36288-8.04506-11.1367-3.33374-6.99694-6.17288-16.6392-5.18906-17.623 0.95898-0.95898 9.2034 4.99457 11.9959 8.66264 4.50196 5.91348 7.42188 12.7228 8.04514 18.7616 0.74322 7.20115-0.23512 7.39308-6.80694 1.33539zm78.875 117.227c7.30099-7.69969 16.4386-25.2317 21.5976-41.4386 5.5969-17.5826 7.9138-33.3229 8.01412-54.4454 0.12122-25.5221-2.42758-40.0681-10.3609-59.13-9.92864-23.8561-11.2723-24.8802-18.287-13.9374-6.33755 9.88644-13.8401 25.4617-15.5127 32.2046-1.44148 5.81095-1.42267 5.91574 2.39879 13.364 3.72783 7.26578 3.85248 7.89837 3.87715 19.676 0.014 6.69286-0.37667 16.9149-0.86817 22.7157l-0.89366 10.5468-9.13247 4.66421c-5.02286 2.56531-9.13468 5.02802-9.13738 5.47268-2e-3 0.44465 4.15097 3.48946 9.23037 6.76624 5.07941 3.27676 9.23529 6.26487 9.23529 6.64022 0 3.15316-4.17881 15.3676-7.55506 22.0832-5.65522 11.2485-7.30392 16.9195-5.53759 19.0478 2.13274 2.56978 14.2062 8.21455 17.5699 8.21455 1.74521 0 4.03254-1.04289 5.36171-2.44463zm-166.296-2.14522c4.11754-1.22976 12.6751-5.89548 13.6214-7.42659 0.3214-0.52002-0.62811-2.7961-2.11-5.05794-4.80467-7.33346-13.3564-38.2094-10.8403-39.1389 5.95926-2.20132 16.922-7.68113 16.9758-8.48555 0.0381-0.56909-4.11503-3.4313-9.22924-6.36046-10.136-5.80541-10.6075-6.55493-10.5747-16.8118 0.0391-12.2521 5.55961-26.676 16.3311-42.6703 6.55798-9.73772 6.71149-10.1293 6.07559-15.4985-1.26519-10.6826-14.1498-31.0604-19.639-31.0604-9.03856 0-21.2555 24.967-26.778 54.7246-3.22918 17.4002-3.94216 45.7067-1.64565 65.3341 3.07139 26.25 9.75408 53.1761 13.428 54.1047 2.43132 0.61449 9.52006-0.20012 14.3849-1.65307zm112.207-48.9177c0.33742-6.12362 0.42059-11.3268 0.1848-11.5626-0.91978-0.91978-6.9997 13.6492-7.0005 16.775-9.6e-4 3.67544 1.66966 5.92145 4.40447 5.92145 1.51575 0 1.89394-1.7463 2.41123-11.1339zm-60.1386 7.23452c4.1796-3.51691 4.15891-5.07599-0.15737-11.855-2.80104-4.39921-3.54252-5.01919-3.8983-3.25951-0.24163 1.19515-1.55744 5.71773-2.92402 10.0502l-2.48469 7.87716h3.06075c1.70767 0 4.53856-1.2435 6.40363-2.81284zm-140.661-89.7476c8.4271-6.46929 15.7966-18.8833 15.7966-26.6095 0-1.58987 0.85562-3.8263 1.90138-4.96984 1.04576-1.14353 3.36816-5.09344 5.16089-8.77758 3.1557-6.48508 3.40467-6.70898 7.81687-7.02959 7.23958-0.52605 11.8307-6.81337 20.2847-27.7789 5.04771-12.5181 8.58669-18.428 15.2732-25.5052 7.52016-7.9596 10.1654-9.1035 22.3528-9.66615 9.27477-0.42819 11.2139-0.90736 19.0198-4.69989 11.7306-5.69938 22.5161-9.24664 36.884-12.1308 10.0879-2.02501 15.4845-2.40229 33.7388-2.35871 29.0247 0.0693 45.9588 3.01196 77.3082 13.434 7.26246 2.41439 14.7186 4.38979 16.5692 4.38979 3.30366 0 3.36471-0.0965 3.36471-5.31807 0-11.6759-8.58608-30.5535-17.5782-38.6481-10.1485-9.13546-27.5626-16.4764-46.6604-19.6698-13.1467-2.19828-36.8804-1.63985-49.8443 1.1728-38.8066 8.41945-81.0496 33.9649-115.169 69.646-9.06063 9.47523-29.0001 34.8327-39.2056 49.8585-10.3817 15.2853-16.4808 30.5816-17.888 44.8624-0.71698 7.27631-0.61274 7.8102 2.04357 10.4665 1.5395 1.5395 3.14017 2.79909 3.55703 2.79909 0.41687 0 2.79031-1.56019 5.27432-3.46711zm231.44-67.1115c0.3543-0.57327 0.0371-2.01449-0.705-3.2027-1.07065-1.71438-1.07551-4.05322-0.0236-11.329 0.72911-5.04276 1.0177-9.97118 0.64131-10.952-0.77879-2.02951-4.63692-4.39599-5.59877-3.43414-0.35088 0.35087-0.86171 7.23546-1.13518 15.2991l-0.49721 14.6611h3.33712c1.83542 0 3.62701-0.46905 3.98131-1.04231zm23.1502-31.0696c-4.21781-2.28911-21.5297-6.67218-32.3581-8.19251-9.94145-1.3958-50.1466-1.47772-72.7085-0.14816-10.0776 0.59388-13.6217 1.18082-13.9984 2.31825-0.39155 1.18219 0.27129 1.3679 2.96172 0.82981 25.1641-5.03282 73.4698-2.93399 106.019 4.6064 11.2494 2.60608 14.1132 2.77255 10.0848 0.58621zm-65.6186-13.8408c2.98637-2.18369 1.97085-8.42214-1.70528-10.4757-6.40614-3.57858-13.1334 3.06712-9.1927 9.08132 2.06553 3.15238 7.53645 3.85239 10.898 1.39438zm-7.21176-0.42938c-2.18709-0.57154-2.55687-4.67997-0.59758-6.63927 1.85959-1.85958 6.25151-1.61238 7.02191 0.39524 0.84724 2.20789-1.35862 7.02962-3.14152 6.86696-0.75978-0.0693-2.23705-0.34964-3.28281-0.62293zm176.286 97.3258c-7.55377-3.04588-11.0327-12.0701-8.76803-22.744 0.69157-3.2595 1.84708-6.68219 2.5678-7.60598 2.20687-2.82867 6.55205-5.38266 9.15769-5.38266 2.20841 0 2.4745 0.52575 2.4745 4.88926 0 3.53631-0.43393 4.88927-1.56815 4.88927-4.68356 0-6.83257 12.0848-2.79825 15.7359 3.16317 2.86263 4.89855 0.80608 7.12792-8.44702 3.23666-13.4339 5.36927-15.9809 13.3812-15.9809 10.6219 0 16.5503 13.6883 11.1136 25.6605-2.37752 5.23551-5.88997 8.02112-10.114 8.02112-2.79947 0-3.01775-0.3163-3.01775-4.37291 0-3.59742 0.45542-4.54606 2.56808-5.34929 2.96685-1.128 3.95094-3.15189 3.95094-8.12559 0-4.04745-3.03407-7.53763-5.32288-6.12306-0.80877 0.49985-2.62234 5.22231-4.03017 10.4943-2.78014 10.4112-5.33524 13.9643-10.7473 14.9453-1.79274 0.32494-4.48158 0.098-5.97522-0.50424zm-425.311-5.50448c-8.93295-0.52909-16.3319-1.0686-16.4421-1.1989-0.31167-0.36853 1.59493-31.4458 1.94826-31.756 0.1724-0.15138 1.95679-0.0252 3.9653 0.28028l3.65185 0.5555-0.43073 10.724-0.43074 10.724h3.43373c2.97657 0 3.52414-0.45204 4.11279-3.39532 0.37349-1.86743 0.67907-6.26778 0.67907-9.77854v-6.38321h8.38923l-0.53989 10.3218-0.53991 10.3218h4.37782c5.42173 0 5.69682-0.63384 5.69682-13.1269v-9.68967h9.02225l-0.70836 11.5773c-0.38961 6.36752-0.70837 13.9459-0.70837 16.8408v5.26351l-4.61764-0.15923c-2.5397-0.0876-11.9264-0.59211-20.8594-1.12122zm415.697-38.6322c-1.25508-5.88467-0.84695-6.42246 5.70418-7.51624 6.68696-1.11647 8.21662-3.33666 6.89701-10.0106-0.96109-4.86076-1.38251-5.48387-3.4006-5.02808-8.93796 2.01867-12.9746 2.72276-13.366 2.33135-0.24876-0.24877-0.55058-2.53958-0.67069-5.09069l-0.2184-4.63838 19.5571-4.05757c13.2635-2.75182 19.7917-3.68446 20.2861-2.89815 1.42913 2.2728 5.06553 24.1785 4.49649 27.0869-1.33451 6.82052-9.33819 10.7951-16.0723 7.98137-3.30488-1.38086-3.81987-1.33648-5.45479 0.47008-0.99294 1.0972-4.21108 2.57203-7.15141 3.2774-2.94032 0.70538-5.61786 1.72229-5.95007 2.25983-1.54329 2.4971-3.63427 0.62586-4.65653-4.1672zm30.1874-13.1963c0.5553-1.03758 0.47573-4.16162-0.19199-7.53869l-1.14026-5.76687-4.46004 0.73626c-2.45303 0.40494-4.59243 0.85352-4.75422 0.99683-0.77082 0.68283 2.29394 11.6575 3.62799 12.9916 1.81928 1.81927 5.60048 1.04369 6.91852-1.41911zm-440.852 10.3936-17.7285-4.51726 0.7006-3.81791c0.38532-2.09986 1.16041-4.29133 1.72241-4.86994 0.65595-0.67536 6.59486 0.32836 16.5869 2.8033l15.5651 3.85535 2.473-10.2582 2.47301-10.2582 3.80674 0.61775c2.09371 0.33976 4.0097 0.82071 4.25777 1.06877 0.24806 0.24807-1.18468 6.99172-3.18387 14.9859-3.38734 13.5449-3.81571 14.5476-6.2898 14.7212-1.46019 0.10256-10.6327-1.84637-20.3834-4.33087zm11.7527-37.2537c-9.86002-4.52712-18.0298-8.33089-18.1551-8.4528-0.26337-0.25629 12.5586-28.0323 13.2676-28.7412 0.78118-0.78119 7.06057 2.17458 7.06057 3.32347 0 0.58642-1.92544 5.175-4.27876 10.1968l-4.27876 9.13064 3.23852 1.6747 3.23851 1.6747 4.28564-9.27626 4.28565-9.27626 3.72935 1.7784c4.15649 1.9821 4.18558 1.57026-0.87043 12.3245-1.54521 3.28667-2.81425 6.49637-2.82008 7.13267-5e-3 0.63629 1.65201 1.94974 3.68412 2.91879l3.69472 1.76189 4.64983-10.2527c2.5574-5.63898 4.9777-10.2527 5.37842-10.2527 1.93183 0 7.63216 2.51928 7.34964 3.2482-3.36668 8.68614-13.4718 29.3432-14.349 29.3326-0.65067-8e-3 -9.25031-3.71834-19.1103-8.24546zm390.416 4.29811c-0.40934-1.10775-3.35132-7.85248-6.53775-14.9883-3.18641-7.13579-5.42248-13.3161-4.96904-13.7341 0.99409-0.91633 35.9374-16.2086 37.0372-16.2086 0.77386 0 12.68 26.8483 12.68 28.5934 0 0.51006-1.57853 1.5911-3.50783 2.40232l-3.50784 1.47493-2.26922-5.09864c-1.24808-2.80426-3.26795-7.40585-4.48859-10.2258l-2.21936-5.12711-3.14025 1.62389c-1.72714 0.89312-3.14024 1.82869-3.14024 2.07903 0 0.25033 1.71124 4.21024 3.80276 8.79977 2.09152 4.58955 3.80276 8.51549 3.80276 8.72433 0 1.04904-6.87769 3.75449-7.55684 2.97261-0.43348-0.49904-2.3984-4.64425-4.36649-9.21159l-3.57833-8.30426-3.92909 1.62779c-2.161 0.89529-4.05739 1.74546-4.21421 1.88927-0.15681 0.14381 1.67666 4.68116 4.07439 10.083 4.95139 11.155 5.07485 11.7846 2.45813 12.537-1.04576 0.30068-2.75288 0.89737-3.7936 1.32595-1.3146 0.54137-2.11942 0.16441-2.63649-1.23487zm-371.758-41.748c-10.4413-7.60315-16.2464-12.4996-15.7798-13.3097 0.40601-0.70486 1.67631-2.63613 2.82288-4.29168l2.08465-3.0101 6.10462 4.33066c3.35754 2.38187 6.23119 4.2041 6.38589 4.0494 0.15469-0.15469-0.4916-4.92909-1.43622-10.6098l-1.71748-10.3285 3.58812-5.09051c1.97348-2.79978 3.7867-4.89194 4.0294-4.64924 0.40256 0.40255 3.44121 20.3457 3.48699 22.8856 0.0124 0.6892 5.62488 0.9564 15.3483 0.73073 16.7462-0.38868 16.0848-0.75401 10.9701 6.05992-2.31972 3.09036-3.27869 3.53231-7.68252 3.54058-2.76756 5e-3 -7.5988 0.31776-10.7361 0.69459-7.55725 0.90773-7.63393 3.34569-0.27163 8.63498 2.98789 2.14659 5.43252 4.19345 5.43252 4.54861 0 0.98377-4.80395 7.82658-5.50054 7.83504-0.3362 4e-3 -8.04436-5.40522-17.1293-12.0207zm356.012 6.84158c-4.72138-5.70704-5.05606-4.97251 6.07918-13.3423 5.71629-4.29665 10.3933-7.95665 10.3933-8.13333 0-0.17667-5.50043 2.06769-12.2232 4.98748l-12.2232 5.30872-2.95866-3.49697c-1.62725-1.92333-2.9718-3.8303-2.98788-4.23772-0.0161-0.40742 3.98657-5.54116 8.89475-11.4083 4.9082-5.86714 8.20845-10.1359 7.3339-9.48613-0.87453 0.64977-5.59485 4.19449-10.4896 7.87716-4.89473 3.68266-9.32536 6.69574-9.84584 6.69574-0.8748 0-5.70099-5.84053-5.70099-6.89921 0-0.25749 7.33789-5.95651 16.3064-12.6645 17.9-13.3882 16.9128-13.1484 22.2748-5.41109 2.60934 3.76529 2.79881 4.55411 1.49468 6.22292-0.8214 1.05107-4.84663 5.97584-8.94498 10.9439s-7.27145 9.21295-7.05135 9.43306c0.22012 0.2201 5.98655-2.01121 12.8143-4.95848 6.82776-2.94726 12.768-5.35866 13.2004-5.35866 0.93283 0 9.01908 10.8214 8.43532 11.2886-2.30876 1.84759-31.1274 23.2493-32.0367 23.7915-0.66711 0.39782-1.91124-0.12078-2.76473-1.15244zm-318.637-45.3359c-5.81849-6.27456-10.9393-11.4083-11.3797-11.4083-0.44034 0-2.77401 1.68916-5.18594 3.75369l-4.38533 3.75368-5.81029-6.06464 13.1168-12.2757 13.1169-12.2757 2.67009 2.50844c1.46855 1.37963 2.6701 2.96792 2.6701 3.52953s-1.95875 2.79879-4.35279 4.9715l-4.35279 3.95039 11.478 12.1822 11.478 12.1823-3.59409 3.26858c-1.97674 1.79772-3.88565 3.28292-4.24201 3.30045-0.35637 0.0175-5.40851-5.10189-11.227-11.3764zm280.797 1.65639c-6.26794-5.3531-11.533-10.1433-11.7002-10.6448-0.25958-0.7787 18.6812-23.7429 24.8066-30.076 2.03397-2.10295 2.08517-2.09317 5.3327 1.01815 1.80345 1.72783 3.279 3.49446 3.279 3.92588s-4.64208 6.22306-10.3157 12.8703l-10.3157 12.0859 8.21435 7.16413 8.21434 7.16413-2.99116 3.1221c-1.64514 1.71715-3.02192 3.11783-3.05952 3.11262-0.0376-5e-3 -5.19666-4.38931-11.4646-9.74242zm-262.163-24.5331c-5.84392-9.28676-10.3635-17.3087-10.0435-17.8265 0.32002-0.51781 5.10141-3.7946 10.6253-7.28177 8.58385-5.41888 10.7899-6.34031 15.1797-6.34031 4.16467 0 5.70605 0.569845 8.14878 3.01258 2.4794 2.4794 3.01258 3.9626 3.01258 8.38043 0 4.49643 0.3449 5.41845 2.1245 5.67946 1.16847 0.17137 3.79145 2.51177 5.82885 5.20086 2.0374 2.6891 4.38163 5.04736 5.20941 5.24056 2.75087 0.64208 1.54175 2.8777-2.94117 5.43815-4.28048 2.44484-4.50222 2.46409-6.5924 0.5725-1.18961-1.07658-2.96532-3.31576-3.94602-4.97595-2.55207-4.32032-4.77905-4.58023-10.3602-1.20912l-4.91819 2.97069 1.90251 2.77224c1.04638 1.52473 2.97731 4.55902 4.29095 6.74288l2.38841 3.97064-3.68386 2.27676c-2.02614 1.25221-4.11509 2.27318-4.64214 2.2688-0.52705-4e-3 -5.73965-7.6062-11.5836-16.8929zm16.2108-14.3251c2.20948-2.02795 2.45117-2.80794 1.4498-4.67902-2.2729-4.24693-6.13866-3.7644-13.4084 1.67367-1.96665 1.47113-1.9558 1.63162 0.36434 5.38569l2.39141 3.86937 3.27567-1.90804c1.80162-1.04941 4.46885-3.00317 5.92716-4.34167zm226.607 23.4028c-3.34195-2.06454-3.5363-2.50755-2.93935-6.70063l0.6392-4.48994-6.32989-3.37256-6.32989-3.37258-3.52149 2.7157-3.52149 2.71568-3.86841-2.05938c-2.12763-1.13266-4.0778-2.38811-4.3337-2.7899-0.25589-0.40179 7.13848-7.15928 16.432-15.0166l16.8972-14.2861 4.91242 2.87887c4.29898 2.51937 4.83831 3.24132 4.31899 5.78136-0.78725 3.85046-6.06074 38.1299-6.06074 39.3969 0 1.54501-2.38581 1.01412-6.29483-1.40072zm1.38434-32.2135c-0.20639-0.20863-2.42854 1.53596-4.93812 3.87686l-4.56286 4.25619 3.6746 2.33138 3.67459 2.33138 1.26352-6.20825c0.69494-3.41453 1.09466-6.37894 0.88827-6.58756zm-195.006 13.8294c-11.994-4.76861-17.6482-24.2616-10.0219-34.5505 4.44486-5.99669 15.37-9.85148 23.564-8.31428 8.76573 1.64446 15.7641 12.3277 15.7829 24.0931 0.0137 8.57755-2.74743 12.9328-10.7788 17.0015-6.2189 3.15054-13.36 3.83214-18.5462 1.77021zm17.1107-11.2705c4.86322-5.65382 1.62511-18.4612-5.53026-21.8734-7.22172-3.4438-14.84 1.36429-14.84 9.36589 0 5.13384 3.22182 12.1108 6.7761 14.674 3.567 2.57229 10.4634 1.47323 13.5942-2.16647zm137.988 10.095c-2.24091-0.59518-4.06784-1.40028-4.05984-1.7891 8e-3 -0.38881 1.18922-4.37389 2.62494-8.85572l2.61039-8.14878-14.4852-4.47508-2.67584 8.21331c-1.47172 4.51732-2.76867 8.36943-2.88211 8.56024-0.50959 0.85711-9.1113-2.44924-9.12318-3.5068-0.0145-1.28906 10.952-37.843 11.5722-38.573 0.73441-0.864411 9.08472 2.17799 9.08472 3.30998 0 0.631013-0.7823 3.83829-1.73843 7.12729-0.95615 3.289-1.32284 6.36438-0.81488 6.83418 1.53623 1.42086 12.8007 4.33162 13.5581 3.50345 0.38838-0.424669 1.50734-3.58345 2.48655-7.01952 0.97922-3.43607 2.13344-6.24467 2.56492-6.24134 2.0459 0.0158 8.93169 2.35724 8.9193 3.0329-8e-3 0.420094-1.00847 3.94183-2.22392 7.82608-1.21546 3.88425-3.92541 12.5627-6.02214 19.2854-2.09672 6.72275-4.15175 12.1726-4.56673 12.1109-0.41498-0.0617-2.58798-0.59926-4.82889-1.19443zm-56.3205-11.6832c-8.62825-2.6148-12.9572-9.26003-12.9203-19.8335 0.0264-7.56767 2.42527-14.05 6.62346-17.8982 10.5845-9.70228 32.4447-3.23584 32.4628 9.60278 4e-3 2.76418-0.18855 2.85936-4.61358 2.28173-2.53971-0.331525-4.77244-0.993854-4.96164-1.47184-2.79086-7.05089-11.0917-8.73098-15.7551-3.18884-10.0375 11.9289 1.9393 30.682 12.4258 19.4562 2.75386-2.94801 3.69287-3.31393 7.08956-2.76272 2.15341 0.349449 4.15857 0.878643 4.45591 1.17599s-0.40272 2.39619-1.55571 4.66411c-3.62776 7.13581-14.1312 10.7381-23.2512 7.97435z"/></g></g></svg>
